Coordinates
version=1
nRows=11
nColumns=36
inDegrees=yes

Units are S.I. units (second, meters, Newtons, ...)
If the header above contains a line with 'inDegrees', this indicates whether rotational values are in degrees (yes) or radians (no).

endheader
time	pelvis_tilt	pelvis_list	pelvis_rotation	pelvis_tx	pelvis_ty	pelvis_tz	hip_flexion_r	hip_adduction_r	hip_rotation_r	knee_angle_r	knee_angle_r_beta	ankle_angle_r	subtalar_angle_r	mtp_angle_r	hip_flexion_l	hip_adduction_l	hip_rotation_l	knee_angle_l	knee_angle_l_beta	ankle_angle_l	subtalar_angle_l	mtp_angle_l	lumbar_extension	lumbar_bending	lumbar_rotation	arm_flex_r	arm_add_r	arm_rot_r	elbow_flex_r	pro_sup_r	arm_flex_l	arm_add_l	arm_rot_l	elbow_flex_l	pro_sup_l
      3.44166670	    -18.22449285	      4.91122199	      2.07292247	      0.32958794	      1.12928407	     -0.04895562	     16.80914997	    -12.02152076	    -10.09619324	      0.81446456	      0.01421509	    -34.86478800	      1.39285203	     -7.49999987	     19.51012003	     -3.98243420	    -15.10141393	      5.39917433	      0.09423337	    -38.25090761	     -3.99067345	     -7.49999987	      3.45919921	     -3.57801319	      0.55003686	     79.67128421	    -39.90297154	     45.34052374	    117.68352828	     87.41766766	     92.22025880	    -41.18583488	     49.96802221	    103.18205510	     76.66861278
      3.44583330	    -18.34825752	      4.77803213	      1.90341571	      0.32973029	      1.13177076	     -0.04942651	     17.05820435	    -11.90599354	    -10.21283031	      0.97480995	      0.01701364	    -34.67938569	      0.93720847	     -7.49999987	     19.74063321	     -4.28094244	    -14.26341082	      5.85170298	      0.10213148	    -38.22624823	     -4.28540383	     -7.49999987	      3.58409678	     -3.64234983	      0.92132847	     78.32241105	    -40.22982573	     44.35810315	    118.23478917	     88.60122788	     91.62113609	    -40.27949651	     49.47291404	    103.02997639	     77.54842906
      3.45000000	    -18.24807717	      4.68750649	      1.41019597	      0.33013850	      1.14193149	     -0.04939858	     17.03062060	    -11.70932873	     -9.59631404	      1.20985942	      0.02111603	    -36.45050421	      0.74480612	     -7.49999987	     19.60189792	     -4.67008053	    -12.96440083	      6.03557389	      0.10534064	    -38.51122510	     -3.95127249	     -7.49999987	      3.51084224	     -3.61087671	      0.92297976	     77.08737193	    -39.91895636	     43.84723195	    118.09658263	     88.86768061	     91.09326258	    -39.81666459	     49.06123727	    102.94262625	     77.72776119
      3.45416670	    -18.14143794	      4.60604963	      1.05478587	      0.33016637	      1.14970375	     -0.04984472	     16.95523933	    -11.50108808	     -9.31255563	      1.38500131	      0.02417283	    -38.09808995	      1.14752048	     -7.49999987	     19.44788245	     -4.92181717	    -11.88431270	      6.05794251	      0.10573104	    -39.00438938	     -3.45372991	     -7.49999987	      3.41852531	     -3.47716295	      1.00642479	     75.64359862	    -40.47817308	     44.13877576	    118.40812597	     88.89269001	     90.11174681	    -40.32429795	     49.28927172	    103.44868065	     77.74991909
      3.45833330	    -18.23566108	      4.45908657	      1.19499117	      0.33058361	      1.15826366	     -0.04955109	     16.93959216	    -11.33292818	     -8.87268595	      1.34962436	      0.02355539	    -39.89260733	      1.08909927	     -7.49999987	     19.70356095	     -5.11690771	    -10.50611490	      6.38902330	      0.11150949	    -39.35719609	     -3.26707914	     -7.49999987	      3.50458353	     -3.64822788	      1.38083319	     73.43166884	    -41.59747588	     43.29741069	    119.24844026	     88.12735258	     89.70343671	    -39.36187442	     50.14407536	    103.23179054	     77.03288003
      3.46250000	    -18.01282202	      4.28402171	      1.21023043	      0.33054428	      1.16230077	     -0.04974836	     16.58947494	    -11.06643650	     -8.57915889	      1.26602414	      0.02209629	    -41.75178873	      1.56224616	     -7.49999987	     19.73835367	     -5.37233541	     -9.11526397	      6.92094389	      0.12079326	    -40.02752908	     -3.41677574	     -7.49999987	      3.21590650	     -3.70858792	      1.38677206	     72.15788564	    -42.11611288	     43.18917242	    119.27427764	     88.86908395	     89.67433473	    -38.39220928	     50.96372457	    102.46777151	     77.22391474
      3.46666670	    -17.96653463	      4.17964789	      1.15772299	      0.33067035	      1.16228185	     -0.04956285	     16.56935987	    -10.94317100	     -8.37877690	      1.16695440	      0.02036720	    -42.67385230	      1.66844891	     -7.49999987	     19.95835202	     -5.53886819	     -8.03974219	      7.41644275	      0.12944134	    -40.38065512	     -3.94413977	     -7.49999987	      3.09093404	     -3.83844436	      1.54439763	     70.98145908	    -43.19970402	     42.97319485	    119.81763776	     88.40456452	     90.08606649	    -37.36480640	     51.79410461	    101.70087396	     76.65925275
      3.47083330	    -17.79254228	      4.15931328	      1.20060586	      0.33459014	      1.16930815	     -0.04575351	     16.17208127	    -10.76052769	     -8.42252008	      1.02967297	      0.01797118	    -43.46472009	      1.94742887	     -7.49999987	     19.82873348	     -5.72794767	     -6.88711105	      7.72845824	      0.13488704	    -40.84433131	     -3.89787642	     -7.49999987	      2.94382763	     -4.02046150	      1.19641141	     70.00595107	    -43.30692907	     43.25237720	    120.03193988	     88.45127944	     89.80939077	    -37.25618548	     51.90466884	    101.67575343	     76.67735847
      3.47500000	    -17.84482224	      4.16509066	      1.27921509	      0.33079582	      1.17256469	     -0.04926074	     16.19719570	    -10.70790855	     -8.67478910	      1.20744471	      0.02107389	    -43.32973656	      1.70662197	     -7.49999987	     20.29651723	     -5.69268018	     -5.47543034	      8.39640161	      0.14654485	    -40.90496505	     -4.40747031	     -7.49999987	      2.75777856	     -4.16045288	      1.57887535	     68.44654243	    -44.34378724	     42.02754501	    120.97984358	     88.73215991	     89.66734112	    -35.55054794	     51.53519908	    100.75353415	     76.78482647
      3.47916670	    -17.67075308	      4.33682817	      1.30060504	      0.33092576	      1.17956173	     -0.04920912	     16.14214941	    -10.90168969	     -8.43835722	      1.50591878	      0.02628324	    -43.37290710	      1.84553355	     -7.49999987	     20.49711745	     -5.53436287	     -4.55105163	      9.11828137	      0.15914403	    -40.45935259	     -4.35893378	     -7.49999987	      2.27514762	     -4.28402740	      1.56120948	     67.93837665	    -44.42328880	     42.26730732	    121.05365234	     88.73777044	     89.05950063	    -35.44884771	     51.53644237	    100.92460377	     76.77024753
      3.48333330	    -17.69681365	      4.16379657	      1.43934985	      0.33546651	      1.18731433	     -0.04578422	     15.86724560	    -10.60668017	     -8.35251838	      1.40065327	      0.02444601	    -43.48472125	      2.03960688	     -7.49999987	     20.81410343	     -5.68376305	     -2.64865984	      9.64393988	      0.16831850	    -40.10561730	     -4.12394123	     -7.49999987	      2.12485102	     -3.97283716	      1.79445549	     66.22838555	    -45.22623112	     41.72905749	    122.38655907	     88.89850357	     86.71555996	    -34.90219235	     49.39032498	    101.80772002	     76.62693014
